<?xml version="1.0" encoding="utf-8"?>
<!-- Generator: Adobe Illustrator 22.1.0, SVG Export Plug-In . SVG Version: 6.00 Build 0)  -->
<svg version="1.1" id="Layer_1" xmlns="http://www.w3.org/2000/svg" xmlns:xlink="http://www.w3.org/1999/xlink" x="0px" y="0px"
	 viewBox="0 0 242 50" style="enable-background:new 0 0 242 50;" xml:space="preserve">
<style type="text/css">
	.st0{fill:#00604C;}
	.st1{fill:#8FC78F;}
	.st2{fill:#5BB684;}
	.st3{fill:#BCDEBC;}
	.st4{fill:#FFFFFF;}
	.st5{fill:#EE776E;}
	.st6{fill:#002A1E;}
</style>
<g>
	<g>
		<path class="st0" d="M10.3,16c-3.3,0-6-2.3-6.1-2.4c-0.2-0.2-0.3-0.6-0.1-0.8c0.2-0.2,0.6-0.3,0.8-0.1c0,0,4,3.5,7.8,1.5
			c2.9-1.5,2.2-4.1,1.4-6.8c-0.6-2.1-1.2-4.3,0.2-5.8c0.7-0.8,1.6-1.2,2.6-1c3.2,0.4,6.1,5.7,6.5,6.3c0.2,0.3,0.1,0.7-0.2,0.8
			c-0.3,0.2-0.7,0.1-0.8-0.2C21.6,6,19,2,16.9,1.8c-0.6-0.1-1.1,0.1-1.6,0.7c-0.9,1-0.4,2.8,0.1,4.6c0.8,2.8,1.7,6.3-2.1,8.2
			C12.3,15.8,11.2,16,10.3,16z"/>
		<path class="st1" d="M22.4,5.8c-0.3,0.3,0.3,4-1.9,6.6c-5.7,6.9-15.8,9.1-16.7,19C3,40.6,11.7,48.2,26.2,48.2
			c14.6,0,26.4-7.4,26.4-16.5C52.6,17,22.7,5.5,22.4,5.8z"/>
		<path class="st2" d="M45.4,38.2c0.1,3.3-7.6,6.9-17.3,7.4c-9.7,0.4-17.8-2.5-17.9-5.8c-0.1-3.3,7.6-6.3,17.4-6.7
			S45.3,35,45.4,38.2z"/>
		<path class="st3" d="M45.2,38.8c-0.2,0-0.4-0.1-0.5-0.2c-0.3-0.3-0.3-0.8,0-1.1c4.6-4.9,1.4-9.8,1.4-9.8c-0.2-0.4-0.1-0.9,0.2-1.1
			c0.4-0.2,0.9-0.1,1.1,0.2c0,0.1,3.9,6-1.5,11.8C45.6,38.7,45.4,38.8,45.2,38.8z"/>
		<path class="st3" d="M40.8,43.5c-0.3,0-0.6-0.2-0.7-0.5c-0.2-0.4,0-0.9,0.4-1.1c1.3-0.5,2.1-1.6,2.1-1.6c0.3-0.3,0.8-0.4,1.1-0.1
			c0.3,0.3,0.4,0.8,0.1,1.1c0,0.1-1.1,1.4-2.8,2.1C41,43.5,40.9,43.5,40.8,43.5z"/>
		<g>
			<circle class="st1" cx="3.8" cy="11.8" r="3.5"/>
			<ellipse class="st2" cx="3.8" cy="12.7" rx="2.1" ry="1.8"/>
			<circle class="st3" cx="3.5" cy="10.1" r="1"/>
			<path class="st3" d="M4.8,14.2c-0.2,0-0.3-0.1-0.4-0.3c-0.1-0.2,0-0.4,0.3-0.5c1.2-0.4,0.8-2.1,0.8-2.2c-0.1-0.2,0.1-0.4,0.3-0.5
				c0.2-0.1,0.4,0.1,0.5,0.3c0.2,0.9,0.3,2.7-1.3,3.2C4.9,14.2,4.8,14.2,4.8,14.2z"/>
		</g>
		<ellipse class="st3" cx="18.7" cy="28.3" rx="3.4" ry="1.8"/>
		<ellipse transform="matrix(0.9063 -0.4226 0.4226 0.9063 -6.4247 19.7725)" class="st3" cx="41.4" cy="24.4" rx="2.7" ry="1.7"/>
		<g>
			<g>
				<g>
					<ellipse transform="matrix(0.9529 -0.3033 0.3033 0.9529 -6.1715 7.9068)" class="st0" cx="22.4" cy="23.8" rx="3" ry="3.9"/>
				</g>
				<polygon class="st4" points="22.8,23.3 24.7,23.5 23,24.3 22.8,26.1 21.9,24.4 20,24.2 21.7,23.4 21.9,21.5 				"/>
			</g>
			<g>
				<g>
					
						<ellipse transform="matrix(0.9664 -0.2569 0.2569 0.9664 -4.0397 10.653)" class="st0" cx="38.8" cy="20.8" rx="2.5" ry="3.5"/>
				</g>
				<polygon class="st4" points="39.2,20.3 40.8,20.5 39.3,21.2 39.1,22.8 38.4,21.3 36.8,21.1 38.2,20.4 38.4,18.8 				"/>
			</g>
			<g>
				<g>
					<polygon class="st5" points="31.8,25 30.8,26.5 29.4,26.8 29.6,29.5 30.5,32.8 32.1,34.8 33,35.3 34,34.7 35.1,32.4 35.1,28.4 
						34.6,26.2 34.1,25.8 32.8,26.2 					"/>
					<path class="st6" d="M29.4,27.7c0,0,4.5-0.1,5.8,2.8L34.8,27l-0.9-0.8l-2-0.8l-2.3,1.5L29.4,27.7z"/>
					<path class="st0" d="M33,35.6c-0.4,0-0.8-0.2-1.2-0.4c-1.2-0.9-2.2-3-2.6-5.6c-0.2-1.2-0.2-1.8-0.1-2.8c0-0.2,0.2-0.4,0.4-0.4
						c0.2,0,0.4,0.2,0.4,0.4c-0.1,0.9-0.1,1.5,0.1,2.6c0.3,2.3,1.2,4.3,2.3,5.1c0.3,0.2,0.6,0.3,0.9,0.3c1.1-0.2,2-2.8,1.5-6.2
						c-0.2-1.1-0.4-1.6-0.7-2.4c-0.1-0.2,0-0.4,0.2-0.5c0.2-0.1,0.4,0,0.5,0.2c0.4,0.9,0.6,1.5,0.8,2.6c0.5,3.7-0.4,6.8-2.2,7.1
						C33.2,35.6,33.1,35.6,33,35.6z"/>
				</g>
				<g>
					<g>
						<path class="st0" d="M29.8,27.2c-0.1,0-0.2,0-0.3,0c-1.6-0.2-1.9-1.1-1.9-1.2c-0.1-0.2,0.1-0.4,0.3-0.5
							c0.2-0.1,0.4,0.1,0.5,0.3c0,0,0.2,0.5,1.2,0.6c0.5,0.1,0.8-0.2,1-0.4c0.4-0.4,0.6-1.1,0.5-1.7c0-0.2,0.1-0.4,0.3-0.5
							c0.2,0,0.4,0.1,0.5,0.3c0.1,0.8-0.2,1.7-0.8,2.3C30.8,26.9,30.3,27.2,29.8,27.2z"/>
						<path class="st0" d="M34.1,26.4c-0.6,0-1.1-0.1-1.7-0.4c-0.7-0.4-1.2-1-1.3-1.7c0-0.2,0.1-0.4,0.3-0.5c0.2,0,0.4,0.1,0.5,0.3
							c0.1,0.6,0.6,0.9,0.9,1.1c0.5,0.3,1.1,0.4,1.6,0.3c0.5-0.1,0.8-0.5,0.8-0.9c0-0.4-0.4-0.6-0.7-0.6c-0.2,0-0.4-0.2-0.3-0.5
							c0-0.2,0.2-0.4,0.5-0.3c1,0.2,1.3,0.8,1.3,1.4c0,0.8-0.7,1.6-1.5,1.7C34.4,26.4,34.3,26.4,34.1,26.4z"/>
					</g>
				</g>
			</g>
		</g>
	</g>
	<g>
		<path class="st4" d="M86.9,20.3c-2.6,0-4.9,1.1-6.6,2.9c-1.6-1.8-4-2.9-6.6-2.9c-2,0-3.9,0.7-5.4,1.8c-1.1-1.4-2.8-2.4-4.8-2.4
			c-1.3,0-2.4,1.1-2.4,2.4c0,1.3,1.1,2.4,2.4,2.4c0.7,0,1.3,0.6,1.3,1.3v3.4v9.3v0.2c0,1.3,1.1,2.4,2.4,2.4s2.4-1.1,2.4-2.4v-0.2
			v-9.3c0-2.3,1.9-4.2,4.2-4.2S78,27,78,29.3v9.5c0,1.3,1.1,2.4,2.4,2.4c1.3,0,2.4-1.1,2.4-2.4v-9.5c0-2.3,1.9-4.2,4.2-4.2
			c2.3,0,4.2,1.9,4.2,4.2v9.5c0,1.3,1.1,2.4,2.4,2.4s2.4-1.1,2.4-2.4v-9.5C95.9,24.3,91.9,20.3,86.9,20.3z"/>
		<path class="st4" d="M155,35.2c-0.7,0-1.3-0.6-1.3-1.3V15c0-1.3-1.1-2.4-2.4-2.4s-2.4,1.1-2.4,2.4v19c0,3.3,2.7,6,6,6
			c1.3,0,2.4-1.1,2.4-2.4C157.4,36.3,156.3,35.2,155,35.2z"/>
		<path class="st4" d="M120.4,35.9c-0.7,0-1.3-0.6-1.3-1.3V20.9c0-1.4-1.1-2.6-2.6-2.6s-2.6,1.1-2.6,2.6v1.1
			c-1.5-0.8-3.1-1.3-4.9-1.3c-5.5,0-10,4.5-10,10s4.5,10,10,10c2.4,0,4.6-0.8,6.3-2.2c1.2,1.5,3,2.5,5.1,2.5c1.4,0,2.6-1.1,2.6-2.6
			S121.8,35.9,120.4,35.9z M109,35.6c-2.7,0-4.9-2.2-4.9-4.9c0-2.7,2.2-4.9,4.9-4.9s4.9,2.2,4.9,4.9C114,33.4,111.8,35.6,109,35.6z"
			/>
		<path class="st4" d="M136,19.3c-1.8,0-3.4,0.5-4.9,1.3v-1.1c0-1.4-1.1-2.5-2.5-2.5c-1.4,0-2.5,1.1-2.5,2.5v27.4
			c0,1.4,1.1,2.5,2.5,2.5c1.4,0,2.5-1.1,2.5-2.5v-9c1.4,0.8,3.1,1.3,4.9,1.3c5.5,0,9.9-4.5,9.9-9.9S141.4,19.3,136,19.3z M136,34.1
			c-2.7,0-4.9-2.2-4.9-4.9c0-2.7,2.2-4.9,4.9-4.9c2.7,0,4.9,2.2,4.9,4.9C140.9,31.9,138.7,34.1,136,34.1z"/>
		<path class="st4" d="M179.3,30.3c-1.3-0.6-2.9-0.1-3.5,1.3c-0.3,0.7-1.4,2.9-6,2.9c-1.4,0-2.7-0.6-3.6-1.5l11.4-5.2
			c0.6-0.3,1-0.8,1.1-1.3c0.3-0.8,0.3-1.7-0.1-2.5c-1.9-3.1-5.2-5-8.8-5c-5.7,0-10.3,4.6-10.3,10.3s4.6,10.3,10.3,10.3
			c6.6,0,9.5-3.2,10.8-6C181.1,32.5,180.6,30.9,179.3,30.3z M169.8,24.3c1.1,0,2.2,0.4,3.1,1l-8.2,3.7
			C164.8,26.4,167.1,24.3,169.8,24.3z"/>
		<circle class="st4" cx="186.2" cy="39" r="2.4"/>
		<path class="st4" d="M212.3,26.2h-7.5c-1.5,0-2.7,1.2-2.7,2.7c0,1.5,1.2,2.7,2.7,2.7h4.8c-1.3,1.8-3.4,2.9-5.6,2.9
			c-3.8,0-6.9-3.1-6.9-6.9s3.1-6.9,6.9-6.9c2.1,0,4,0.9,5.4,2.6c0.9,1.1,2.6,1.3,3.8,0.4c1.1-0.9,1.3-2.6,0.4-3.8
			c-2.3-2.9-5.8-4.5-9.5-4.5c-6.7,0-12.2,5.5-12.2,12.2s5.5,12.2,12.2,12.2c2.1,0,4.1-0.6,5.9-1.5c0.4,0.9,1.3,1.6,2.4,1.6
			c1.5,0,2.7-1.2,2.7-2.7v-8.2C215,27.4,213.8,26.2,212.3,26.2z"/>
		<path class="st4" d="M239,26.2h-7.5c-1.5,0-2.7,1.2-2.7,2.7c0,1.5,1.2,2.7,2.7,2.7h4.8c-1.3,1.8-3.4,2.9-5.6,2.9
			c-3.8,0-6.9-3.1-6.9-6.9s3.1-6.9,6.9-6.9c2.1,0,4,0.9,5.4,2.6c0.9,1.1,2.6,1.3,3.8,0.4c1.1-0.9,1.3-2.6,0.4-3.8
			c-2.3-2.9-5.8-4.5-9.5-4.5c-6.7,0-12.2,5.5-12.2,12.2s5.5,12.2,12.2,12.2c2.1,0,4.1-0.6,5.9-1.5c0.4,0.9,1.3,1.6,2.4,1.6
			c1.5,0,2.7-1.2,2.7-2.7v-8.2C241.7,27.4,240.5,26.2,239,26.2z"/>
	</g>
</g>
</svg>
